<svg id="svg" version="1.1" width="662" height="662" xmlns="http://www.w3.org/2000/svg" xmlns:xlink="http://www.w3.org/1999/xlink" style="display: block;"><g id="svgg"><path id="path0" d="M91.088 103.156 C 92.168 103.290,93.935 103.290,95.015 103.156 C 96.095 103.022,95.211 102.912,93.051 102.912 C 90.891 102.912,90.008 103.022,91.088 103.156 M110.423 144.233 C 111.171 144.377,112.394 144.377,113.142 144.233 C 113.890 144.089,113.278 143.971,111.782 143.971 C 110.287 143.971,109.675 144.089,110.423 144.233 M129.161 146.651 C 129.913 146.795,131.000 146.790,131.578 146.639 C 132.156 146.487,131.541 146.369,130.211 146.376 C 128.882 146.383,128.410 146.506,129.161 146.651 M125.906 153.172 C 125.907 156.828,126.007 158.245,126.127 156.322 C 126.247 154.399,126.246 151.408,126.124 149.676 C 126.003 147.943,125.904 149.517,125.906 153.172 M88.973 166.580 C 89.554 166.732,90.506 166.732,91.088 166.580 C 91.669 166.428,91.193 166.303,90.030 166.303 C 88.867 166.303,88.391 166.428,88.973 166.580 M80.219 167.195 C 80.970 167.339,82.058 167.334,82.635 167.183 C 83.213 167.031,82.598 166.913,81.269 166.920 C 79.940 166.926,79.467 167.050,80.219 167.195 M63.897 167.809 C 64.977 167.943,66.745 167.943,67.825 167.809 C 68.905 167.675,68.021 167.565,65.861 167.565 C 63.701 167.565,62.817 167.675,63.897 167.809 " stroke="none" fill="#efd6ce" fill-rule="evenodd"></path><path id="path1" d="M88.218 103.710 C 87.719 103.907,80.873 106.616,73.003 109.730 C 65.134 112.844,56.433 116.045,53.668 116.844 L 48.640 118.295 48.640 141.172 L 48.640 164.048 53.743 165.758 C 60.714 168.095,76.474 167.861,108.459 164.947 C 135.989 162.438,138.656 161.655,140.821 155.445 C 142.168 151.582,138.369 146.106,133.145 144.382 C 130.680 143.568,130.668 143.400,132.865 140.367 C 135.046 137.357,137.557 135.347,139.137 135.347 C 140.140 135.347,139.886 134.854,137.654 132.469 C 134.570 129.172,132.182 125.321,130.812 121.439 C 129.035 116.402,123.492 112.906,106.344 106.007 C 100.671 103.724,91.212 102.526,88.218 103.710 M107.665 130.270 C 108.697 130.803,111.292 131.292,113.470 131.363 L 117.409 131.491 120.842 135.144 C 124.831 139.388,127.771 143.125,127.406 143.490 C 127.266 143.630,121.258 143.934,114.056 144.165 C 98.421 144.666,97.401 144.397,98.188 139.969 C 98.858 136.196,98.675 133.605,97.623 132.000 C 96.329 130.025,96.341 130.009,99.245 129.748 C 104.656 129.260,105.857 129.335,107.665 130.270 M134.512 147.380 C 143.695 151.550,136.149 163.405,126.636 159.754 C 124.886 159.083,125.259 146.993,127.039 146.650 C 129.968 146.086,132.127 146.297,134.512 147.380 " stroke="none" fill="#d2a688" fill-rule="evenodd"></path><path id="path2" d="M177.057 0.968 C 110.946 8.964,52.186 49.421,22.473 107.402 L 18.060 116.012 33.199 116.012 C 46.592 116.012,48.338 116.122,48.338 116.966 C 48.338 118.695,56.107 116.233,76.803 107.947 C 94.442 100.885,95.750 100.921,113.806 108.961 C 127.977 115.270,128.078 115.349,131.722 122.961 C 135.729 131.331,138.883 134.737,142.646 134.758 C 144.115 134.765,146.934 135.437,148.911 136.249 C 153.576 138.167,152.590 141.431,156.727 110.375 C 157.207 106.775,157.742 103.688,157.918 103.512 C 158.242 103.188,187.970 107.380,189.495 107.965 C 190.746 108.445,190.511 110.674,188.828 114.290 C 183.235 126.303,194.285 138.415,205.071 132.094 C 211.197 128.504,212.955 120.876,209.453 113.076 C 207.013 107.642,206.638 107.834,224.746 105.240 C 242.189 102.740,240.636 102.339,241.595 109.588 C 243.500 123.973,245.486 138.089,245.627 138.252 C 245.716 138.354,247.031 137.561,248.550 136.491 C 258.639 129.379,272.500 141.297,268.081 153.283 C 264.770 162.263,257.179 165.255,249.173 160.737 C 245.358 158.584,245.870 157.603,243.816 170.997 C 242.975 176.480,241.834 183.890,241.281 187.462 C 240.728 191.035,240.030 193.958,239.730 193.958 C 239.037 193.958,210.431 189.223,208.608 188.806 L 207.246 188.495 209.114 184.795 C 213.374 176.354,211.160 167.552,203.952 164.278 C 192.768 159.197,183.322 171.779,189.080 184.084 C 190.120 186.306,190.759 188.300,190.500 188.516 C 189.908 189.012,158.315 194.166,157.972 193.823 C 157.733 193.584,155.393 177.412,153.954 166.049 C 153.086 159.199,153.290 159.379,148.337 161.066 C 143.775 162.620,140.582 162.890,138.066 161.933 C 137.073 161.556,136.084 161.539,135.429 161.890 C 134.853 162.198,131.541 162.763,128.069 163.145 C 124.598 163.527,120.940 163.939,119.942 164.059 C 103.828 166.012,64.625 168.363,59.877 167.662 C 58.414 167.446,55.287 166.617,52.929 165.818 C 50.452 164.980,48.555 164.618,48.439 164.963 C 48.311 165.341,39.880 165.559,25.397 165.559 L 2.556 165.559 1.882 170.242 C -0.111 184.090,-0.675 206.976,0.669 219.463 C 1.478 226.978,-0.339 225.718,12.862 227.917 L 24.039 229.779 22.524 234.074 C 20.292 240.403,20.285 246.177,22.506 249.094 C 33.010 262.892,51.432 249.090,43.207 233.585 C 42.046 231.397,41.299 229.601,41.545 229.594 C 41.792 229.586,49.199 228.377,58.006 226.907 C 89.630 221.627,107.070 218.731,107.240 218.731 C 107.335 218.731,106.724 217.032,105.884 214.955 C 100.714 202.186,107.823 191.122,119.334 194.020 C 128.344 196.289,131.382 205.102,126.689 215.353 L 125.238 218.521 141.306 221.382 C 150.144 222.955,157.500 224.368,157.654 224.522 C 157.919 224.787,153.669 256.898,153.165 258.438 C 152.996 258.954,151.885 258.689,149.423 257.545 C 138.970 252.688,129.758 258.093,129.758 269.084 C 129.758 280.161,138.718 284.814,150.291 279.747 C 153.472 278.354,152.894 276.577,155.651 296.224 C 157.150 306.910,158.251 312.991,158.687 312.991 C 159.063 312.991,166.200 311.903,174.548 310.574 C 182.895 309.245,189.983 308.157,190.299 308.157 C 190.615 308.157,190.021 306.336,188.979 304.109 C 182.863 291.040,193.494 278.369,205.481 284.441 C 212.456 287.974,214.643 295.868,210.861 303.862 C 209.856 305.986,209.108 307.792,209.200 307.874 C 209.930 308.532,240.746 312.939,241.061 312.430 C 241.273 312.087,242.627 304.392,244.069 295.329 C 247.148 275.996,246.306 277.944,250.593 280.222 C 257.124 283.691,261.501 283.372,265.759 279.114 C 277.411 267.462,263.579 248.668,250.051 257.771 C 248.351 258.915,246.891 259.776,246.805 259.684 C 246.535 259.394,241.595 224.667,241.799 224.499 C 241.906 224.411,248.656 223.192,256.798 221.791 C 264.940 220.390,272.188 219.105,272.905 218.935 C 274.200 218.630,274.196 218.601,272.317 214.601 C 264.186 197.293,286.456 184.857,295.220 201.813 C 296.989 205.235,296.692 209.830,294.384 214.743 C 293.307 217.036,292.499 218.962,292.588 219.024 C 292.677 219.086,299.913 220.147,308.668 221.381 C 317.423 222.616,325.036 223.874,325.586 224.176 C 326.136 224.478,333.373 225.836,341.668 227.193 C 359.422 230.098,357.359 229.083,355.564 234.029 C 352.435 242.649,352.950 247.314,357.467 251.290 C 369.022 261.462,383.632 247.264,375.832 233.443 C 373.491 229.296,372.289 229.945,386.559 227.654 L 398.692 225.706 399.025 222.974 C 400.699 209.274,399.990 182.268,397.573 167.674 C 380.143 62.387,282.093 -11.736,177.057 0.968 M100.604 129.727 C 97.396 130.076,97.075 130.519,98.279 132.933 C 99.146 134.671,99.194 135.452,98.607 138.251 C 97.354 144.227,97.949 144.472,112.689 144.042 C 129.223 143.560,128.468 144.113,122.298 137.008 L 117.708 131.722 114.292 131.696 C 112.413 131.681,109.789 131.247,108.459 130.732 C 105.547 129.603,103.800 129.380,100.604 129.727 M126.284 153.105 L 126.284 159.382 128.390 159.777 C 132.956 160.634,138.973 156.913,138.973 153.233 C 138.973 149.749,134.715 146.828,129.637 146.828 L 126.284 146.828 126.284 153.105 " stroke="none" fill="#f7fae8" fill-rule="evenodd"></path><path id="path3" d="M321.229 241.523 C 318.065 260.017,318.289 259.218,316.677 257.759 C 310.432 252.107,297.834 256.095,295.512 264.459 C 291.967 277.225,303.484 286.901,315.172 280.974 C 317.129 279.982,318.764 279.166,318.804 279.162 C 318.845 279.158,319.054 280.582,319.270 282.326 C 319.730 286.047,323.943 313.255,324.078 313.374 C 324.276 313.550,356.007 308.243,356.258 307.992 C 356.405 307.845,355.703 305.986,354.698 303.862 C 347.020 287.631,368.625 273.838,376.876 289.704 L 377.806 291.494 380.754 285.622 C 388.764 269.667,398.163 238.402,398.184 227.644 C 398.187 225.963,396.851 225.327,396.047 226.627 C 395.828 226.982,395.267 227.127,394.802 226.948 C 394.336 226.769,392.664 226.892,391.086 227.220 C 389.509 227.549,387.402 227.948,386.405 228.108 C 385.408 228.268,383.776 228.541,382.779 228.715 C 381.782 228.889,380.237 229.022,379.345 229.011 C 378.453 228.999,377.552 229.266,377.344 229.603 C 377.136 229.940,376.234 230.057,375.341 229.863 C 374.084 229.590,373.921 229.655,374.622 230.153 C 375.121 230.507,375.257 230.806,374.924 230.816 C 374.522 230.828,374.522 230.982,374.924 231.278 C 375.448 231.662,377.777 236.009,377.915 236.858 C 377.942 237.024,378.130 237.432,378.333 237.764 C 379.587 239.820,378.178 246.553,375.962 249.094 C 375.454 249.675,375.260 250.151,375.529 250.151 C 375.798 250.151,375.526 250.695,374.924 251.360 C 374.323 252.024,373.457 252.568,372.999 252.568 C 372.542 252.568,372.012 252.974,371.821 253.471 C 371.630 253.967,371.231 254.223,370.934 254.039 C 370.636 253.856,370.393 253.961,370.393 254.274 C 370.393 255.696,361.602 254.723,359.023 253.016 C 353.167 249.139,351.962 243.690,354.975 234.715 C 355.836 232.151,356.462 229.999,356.367 229.931 C 356.183 229.801,325.012 224.762,324.434 224.769 C 324.247 224.772,322.804 232.311,321.229 241.523 M90.785 255.401 C 91.367 255.553,92.319 255.553,92.900 255.401 C 93.482 255.249,93.006 255.125,91.843 255.125 C 90.680 255.125,90.204 255.249,90.785 255.401 M29.416 283.655 C 26.913 284.548,25.346 285.713,22.877 288.519 L 21.282 290.330 23.074 293.880 C 33.075 313.691,56.575 342.847,65.833 346.928 C 67.842 347.814,69.486 348.297,69.486 348.003 C 69.486 346.587,74.378 314.594,74.666 314.129 C 74.847 313.835,74.823 313.595,74.611 313.595 C 73.981 313.595,42.008 308.007,41.834 307.866 C 41.746 307.795,42.358 306.243,43.194 304.418 C 48.944 291.858,40.806 279.593,29.416 283.655 M194.844 284.216 C 187.802 287.335,185.345 296.479,189.399 304.479 C 191.465 308.555,192.820 307.977,174.247 310.949 C 165.411 312.363,158.116 313.605,158.036 313.709 C 157.866 313.929,163.182 348.254,163.426 348.513 C 163.517 348.608,165.004 347.809,166.730 346.736 C 179.540 338.772,192.557 353.692,183.845 366.352 C 180.011 371.925,173.935 373.087,167.142 369.546 L 163.198 367.490 162.832 369.999 C 162.630 371.379,161.702 377.674,160.769 383.988 C 159.836 390.302,159.240 395.655,159.446 395.883 C 159.965 396.461,173.471 398.580,182.134 399.443 C 191.134 400.339,217.165 399.820,225.680 398.575 C 240.343 396.432,240.629 396.354,240.295 394.615 C 240.130 393.755,239.241 387.440,238.320 380.583 C 237.282 372.847,236.400 368.158,235.997 368.231 C 235.640 368.295,234.258 368.916,232.927 369.609 C 226.666 372.873,222.344 372.620,218.049 368.740 C 206.796 358.574,216.139 340.352,230.081 345.271 C 231.422 345.744,232.680 345.971,232.876 345.775 C 233.072 345.578,233.233 345.692,233.233 346.026 C 233.233 347.036,236.247 348.178,236.535 347.277 C 236.668 346.864,237.763 339.456,238.968 330.816 C 240.174 322.175,241.460 314.562,241.826 313.897 C 242.421 312.814,242.386 312.775,241.487 313.518 C 240.819 314.070,240.483 314.117,240.483 313.660 C 240.483 313.281,239.736 312.983,238.822 312.996 C 237.908 313.009,236.344 312.877,235.347 312.703 C 234.350 312.529,232.583 312.238,231.420 312.056 C 230.257 311.875,228.625 311.603,227.795 311.452 C 226.964 311.302,225.468 311.048,224.471 310.888 C 223.474 310.728,221.337 310.322,219.722 309.987 C 218.106 309.651,216.531 309.534,216.221 309.725 C 215.911 309.917,215.301 309.778,214.866 309.417 C 214.430 309.056,213.423 308.758,212.626 308.755 C 209.168 308.743,208.425 308.513,208.818 307.574 C 209.032 307.064,209.220 306.307,209.236 305.891 C 209.252 305.476,209.537 305.136,209.869 305.136 C 210.201 305.136,210.305 304.968,210.099 304.762 C 209.894 304.556,210.123 303.990,210.608 303.505 C 211.094 303.019,211.337 302.372,211.148 302.066 C 210.959 301.761,211.076 301.511,211.408 301.511 C 212.441 301.511,212.862 296.294,212.090 293.073 C 211.688 291.399,211.115 290.030,210.816 290.030 C 210.517 290.030,210.272 289.672,210.272 289.235 C 210.272 285.332,199.924 281.965,194.844 284.216 M282.931 344.223 C 283.512 344.375,284.464 344.375,285.045 344.223 C 285.627 344.071,285.151 343.947,283.988 343.947 C 282.825 343.947,282.349 344.071,282.931 344.223 M107.547 375.536 C 106.970 376.231,106.591 376.286,105.962 375.764 C 105.508 375.387,105.136 375.215,105.136 375.381 C 105.136 376.631,106.873 376.916,107.857 375.829 C 108.457 375.165,108.804 374.622,108.627 374.622 C 108.450 374.622,107.964 375.034,107.547 375.536 " stroke="none" fill="#a5c3ce" fill-rule="evenodd"></path><path id="path4" d="M224.630 105.682 C 207.217 108.266,207.685 108.028,210.004 113.116 C 214.334 122.615,209.861 132.980,200.999 133.979 C 189.813 135.240,183.443 124.330,188.748 112.997 C 189.972 110.381,190.144 109.523,189.561 108.942 C 188.756 108.139,159.024 103.615,158.434 104.205 C 158.235 104.404,157.057 112.061,155.817 121.222 C 153.203 140.528,153.845 138.971,149.333 136.946 C 142.602 133.926,136.617 135.116,133.453 140.105 C 131.286 143.523,131.206 143.239,134.814 144.932 C 141.772 148.198,143.346 154.453,138.515 159.636 L 136.996 161.265 138.642 161.678 C 141.133 162.303,146.147 161.580,149.712 160.080 C 153.786 158.366,153.253 157.049,155.637 174.721 C 158.395 195.173,157.960 193.570,160.637 193.123 C 161.849 192.921,168.958 191.768,176.435 190.562 C 183.912 189.356,190.105 188.306,190.196 188.228 C 190.287 188.151,189.540 186.349,188.535 184.225 C 185.021 176.797,186.682 168.673,192.464 165.006 C 204.507 157.368,216.426 170.564,209.908 184.319 L 208.033 188.276 223.702 190.867 C 232.320 192.292,239.497 193.333,239.649 193.181 C 239.802 193.028,241.123 185.226,242.586 175.843 C 244.048 166.461,245.336 158.692,245.448 158.580 C 245.561 158.468,247.513 159.312,249.787 160.457 C 256.122 163.645,261.279 162.772,265.011 157.879 C 274.299 145.701,261.682 128.902,249.111 136.710 C 244.772 139.406,245.362 140.877,242.559 120.393 C 241.274 111.005,240.077 103.355,239.900 103.393 C 239.722 103.432,232.851 104.462,224.630 105.682 M175.529 106.953 C 182.508 107.946,188.421 108.758,188.671 108.759 C 189.542 108.763,189.113 111.162,187.784 113.711 C 183.507 121.917,187.850 132.448,196.468 134.768 L 198.792 135.394 198.792 148.592 L 198.792 161.790 196.212 162.440 C 187.546 164.622,183.409 175.827,188.019 184.630 L 189.621 187.689 174.464 190.215 C 166.128 191.605,159.212 192.646,159.095 192.529 C 158.779 192.213,157.915 186.684,155.930 172.271 C 153.835 157.062,154.299 157.837,148.477 159.792 C 142.042 161.952,136.567 161.764,139.321 159.478 C 144.331 155.321,141.939 147.528,134.550 143.935 L 132.288 142.834 133.681 140.767 C 137.082 135.720,141.961 134.691,149.047 137.526 C 154.528 139.719,153.772 141.580,156.813 118.429 C 158.748 103.701,158.533 104.414,160.923 104.822 C 161.977 105.002,168.550 105.961,175.529 106.953 " stroke="none" fill="#4e6794" fill-rule="evenodd"></path><path id="path5" d="M158.631 105.601 C 158.454 106.064,158.308 107.117,158.308 107.940 C 158.308 108.763,158.104 109.311,157.855 109.157 C 157.606 109.003,157.485 110.142,157.586 111.689 C 157.729 113.874,157.619 114.299,157.093 113.595 C 156.552 112.870,156.497 112.975,156.821 114.119 C 157.269 115.701,155.345 131.829,154.752 131.463 C 154.548 131.337,154.463 132.499,154.565 134.046 C 154.705 136.189,154.593 136.642,154.093 135.952 C 153.581 135.244,153.519 135.395,153.807 136.641 C 154.016 137.542,153.890 138.414,153.518 138.644 C 152.633 139.191,150.346 138.426,150.778 137.728 C 150.967 137.423,150.655 137.353,150.083 137.572 C 149.510 137.792,149.200 137.721,149.390 137.414 C 149.579 137.108,149.148 136.807,148.432 136.745 C 147.716 136.684,145.179 136.403,142.795 136.122 C 140.411 135.841,138.574 135.795,138.713 136.020 C 139.081 136.615,137.166 137.235,136.408 136.767 C 136.054 136.548,135.936 136.647,136.146 136.986 C 136.620 137.753,134.513 139.750,133.889 139.125 C 133.639 138.875,133.489 138.943,133.556 139.275 C 133.814 140.552,133.510 141.445,132.937 141.092 C 132.583 140.873,132.502 141.144,132.738 141.760 C 133.032 142.526,132.912 142.680,132.278 142.350 C 131.806 142.105,131.892 142.291,132.468 142.764 C 133.044 143.237,133.385 143.755,133.226 143.914 C 133.066 144.074,133.546 144.183,134.293 144.156 C 135.116 144.128,135.584 144.423,135.484 144.909 C 135.390 145.361,135.608 145.529,135.986 145.296 C 136.353 145.069,137.472 145.661,138.472 146.611 C 142.850 150.773,143.178 155.213,139.411 159.350 C 137.780 161.142,139.021 161.667,143.392 161.036 C 145.116 160.787,147.111 160.547,147.827 160.503 C 148.543 160.459,148.977 160.176,148.790 159.875 C 148.604 159.573,149.038 159.480,149.755 159.667 C 150.472 159.855,150.919 159.781,150.747 159.504 C 150.338 158.841,152.669 158.112,153.518 158.637 C 153.890 158.867,154.016 159.739,153.807 160.640 C 153.519 161.886,153.581 162.037,154.093 161.329 C 154.593 160.639,154.705 161.092,154.565 163.235 C 154.463 164.782,154.558 165.938,154.775 165.804 C 155.360 165.442,156.063 172.500,155.604 174.126 C 155.350 175.024,155.401 175.251,155.746 174.757 C 156.090 174.265,156.665 176.917,157.337 182.097 C 158.667 192.355,158.730 192.574,160.459 192.904 C 161.333 193.071,161.749 192.939,161.519 192.568 C 161.275 192.172,161.975 192.090,163.501 192.336 C 165.215 192.611,165.613 192.544,164.955 192.092 C 164.282 191.630,164.696 191.520,166.565 191.667 C 167.950 191.776,168.966 191.676,168.823 191.445 C 168.449 190.840,174.992 190.116,175.878 190.664 C 176.328 190.942,176.467 190.873,176.231 190.491 C 175.979 190.084,178.325 189.482,182.798 188.806 C 186.625 188.228,189.928 187.477,190.138 187.137 C 190.374 186.755,190.214 186.709,189.719 187.015 C 189.133 187.377,189.025 187.232,189.316 186.473 C 189.535 185.902,189.486 185.577,189.208 185.749 C 188.462 186.210,187.090 183.324,187.635 182.442 C 187.957 181.921,187.856 181.838,187.309 182.176 C 186.719 182.541,186.604 182.334,186.858 181.363 C 187.045 180.645,186.952 180.211,186.651 180.397 C 185.769 180.942,186.019 173.158,186.954 170.920 C 188.143 168.075,190.304 165.470,191.078 165.949 C 191.445 166.175,191.554 166.069,191.328 165.704 C 190.836 164.907,194.171 162.815,196.828 162.253 L 198.792 161.838 198.792 148.616 L 198.792 135.394 196.356 134.738 C 195.017 134.378,194.080 133.826,194.273 133.513 C 194.472 133.191,194.176 133.117,193.588 133.342 C 192.829 133.634,192.683 133.526,193.046 132.940 C 193.376 132.405,193.307 132.284,192.836 132.575 C 191.905 133.150,188.300 129.545,188.875 128.614 C 189.131 128.201,189.049 128.072,188.676 128.302 C 187.915 128.773,187.141 127.048,187.705 126.136 C 187.956 125.730,187.811 125.673,187.309 125.983 C 186.719 126.348,186.604 126.140,186.858 125.169 C 187.045 124.452,186.952 124.018,186.651 124.204 C 186.042 124.580,185.913 118.898,186.482 116.774 C 186.681 116.030,187.082 115.568,187.373 115.748 C 187.664 115.928,187.744 115.665,187.552 115.165 C 187.360 114.665,187.636 113.639,188.164 112.885 C 189.567 110.881,189.421 108.761,187.880 108.761 C 187.195 108.761,186.762 108.557,186.916 108.308 C 187.070 108.059,185.930 107.938,184.383 108.039 C 182.199 108.182,181.773 108.072,182.477 107.546 C 183.206 107.002,183.110 106.947,181.989 107.263 C 180.454 107.696,165.465 105.781,165.818 105.197 C 165.939 104.997,164.444 104.817,162.496 104.797 C 159.999 104.771,158.859 105.008,158.631 105.601 M16.925 117.221 C 12.551 125.516,5.269 148.265,2.791 161.373 L 1.999 165.559 25.169 165.559 L 48.338 165.559 48.338 141.108 L 48.338 116.656 32.870 116.485 C 19.617 116.339,17.334 116.444,16.925 117.221 " stroke="none" fill="#637ea4" fill-rule="evenodd"></path><path id="path6" d="M115.559 194.374 C 116.559 194.636,116.616 198.710,116.616 269.229 L 116.616 343.807 118.311 343.807 C 126.619 343.807,131.709 331.833,127.365 322.508 C 126.475 320.597,125.935 319.030,126.166 319.026 C 127.073 319.011,157.285 313.611,157.464 313.433 C 157.740 313.157,152.970 280.261,152.600 279.892 C 152.429 279.720,150.511 280.164,148.337 280.878 C 137.798 284.338,130.109 280.193,129.421 270.681 C 128.522 258.247,137.301 252.199,149.220 257.042 C 151.610 258.013,152.878 258.279,152.894 257.813 C 152.907 257.421,153.956 249.894,155.224 241.088 C 156.493 232.281,157.439 224.967,157.327 224.835 C 157.214 224.703,149.980 223.319,141.250 221.759 C 129.080 219.584,125.404 218.724,125.490 218.072 C 125.552 217.604,126.299 215.373,127.152 213.115 C 130.909 203.157,125.739 193.796,116.616 194.041 C 115.453 194.072,114.977 194.222,115.559 194.374 M107.213 198.338 L 105.438 200.302 107.402 198.527 C 109.232 196.873,109.643 196.375,109.176 196.375 C 109.073 196.375,108.189 197.258,107.213 198.338 M97.281 256.382 C 97.281 256.486,98.165 257.370,99.245 258.346 L 101.208 260.121 99.434 258.157 C 97.780 256.327,97.281 255.916,97.281 256.382 M103.504 268.882 C 103.504 270.710,103.618 271.458,103.756 270.544 C 103.894 269.630,103.894 268.134,103.756 267.221 C 103.618 266.307,103.504 267.054,103.504 268.882 M366.767 296.811 C 366.767 308.381,366.882 310.074,367.598 309.047 C 369.103 306.890,375.183 296.713,376.440 294.250 C 378.184 290.831,375.955 287.073,370.574 284.359 C 366.646 282.378,366.767 281.979,366.767 296.811 M282.069 377.340 C 282.176 380.166,282.386 382.477,282.535 382.477 C 283.305 382.477,292.447 377.559,292.447 377.146 C 292.447 375.262,287.100 372.206,283.798 372.204 L 281.873 372.203 282.069 377.340 M270.835 384.290 C 270.835 385.453,270.959 385.929,271.111 385.347 C 271.263 384.766,271.263 383.814,271.111 383.233 C 270.959 382.651,270.835 383.127,270.835 384.290 " stroke="none" fill="#81929c" fill-rule="evenodd"></path><path id="path7" d="M25.529 116.464 C 29.766 116.567,36.699 116.567,40.937 116.464 C 45.174 116.360,41.707 116.275,33.233 116.275 C 24.758 116.275,21.292 116.360,25.529 116.464 M113.595 194.562 C 113.595 194.965,113.205 195.146,112.728 194.963 C 112.251 194.780,111.775 194.866,111.670 195.155 C 111.566 195.444,111.119 195.768,110.677 195.876 C 109.564 196.148,105.354 200.199,105.606 200.755 C 105.719 201.005,105.532 201.208,105.191 201.208 C 104.849 201.208,104.726 201.616,104.917 202.115 C 105.109 202.613,104.987 203.021,104.647 203.021 C 104.307 203.021,104.028 204.245,104.028 205.740 C 104.028 207.236,104.309 208.459,104.653 208.459 C 104.996 208.459,105.135 209.003,104.961 209.668 C 104.787 210.332,104.920 210.876,105.257 210.876 C 105.594 210.876,105.713 211.284,105.522 211.782 C 105.330 212.281,105.466 212.689,105.824 212.689 C 106.181 212.689,106.317 213.097,106.126 213.595 C 105.935 214.094,106.071 214.502,106.428 214.502 C 106.785 214.502,106.921 214.909,106.730 215.408 C 106.539 215.906,106.662 216.314,107.003 216.314 C 107.345 216.314,107.456 216.586,107.251 216.918 C 107.045 217.251,107.175 217.523,107.538 217.523 C 108.013 217.523,108.009 217.879,107.524 218.784 C 107.025 219.717,106.479 219.953,105.425 219.688 C 104.642 219.492,103.819 219.626,103.596 219.986 C 103.374 220.347,102.558 220.483,101.784 220.288 C 101.010 220.094,100.198 220.224,99.980 220.577 C 99.751 220.946,98.837 221.055,97.828 220.833 C 96.648 220.574,96.073 220.687,96.073 221.176 C 96.073 221.662,95.471 221.783,94.260 221.541 C 93.125 221.314,92.447 221.427,92.447 221.843 C 92.447 222.259,91.770 222.372,90.634 222.145 C 89.499 221.918,88.822 222.031,88.822 222.447 C 88.822 222.863,88.144 222.976,87.009 222.749 C 85.874 222.522,85.196 222.635,85.196 223.051 C 85.196 223.466,84.522 223.581,83.407 223.358 C 82.407 223.158,81.444 223.281,81.224 223.637 C 81.008 223.988,80.263 224.126,79.570 223.945 C 78.878 223.764,77.958 223.908,77.527 224.266 C 77.096 224.623,76.198 224.773,75.532 224.599 C 74.265 224.268,73.863 225.024,74.949 225.695 C 75.295 225.909,75.408 226.618,75.201 227.270 C 74.994 227.923,75.141 228.839,75.529 229.305 C 75.916 229.772,76.063 230.687,75.856 231.340 C 75.649 231.993,75.737 232.686,76.052 232.880 C 76.366 233.075,76.481 233.779,76.307 234.445 C 76.133 235.111,76.283 236.009,76.641 236.439 C 76.998 236.870,77.143 237.790,76.961 238.483 C 76.780 239.176,76.902 239.910,77.232 240.114 C 77.562 240.318,77.690 241.030,77.515 241.696 C 77.341 242.362,77.507 243.279,77.885 243.733 C 78.262 244.188,78.400 245.006,78.191 245.550 C 77.981 246.095,78.135 246.932,78.532 247.411 C 78.929 247.889,79.077 248.837,78.861 249.518 C 78.623 250.269,78.738 250.755,79.154 250.755 C 79.570 250.755,79.685 251.242,79.447 251.993 C 79.231 252.673,79.371 253.612,79.758 254.079 C 80.146 254.545,80.296 255.450,80.093 256.089 C 79.827 256.929,80.064 257.341,80.950 257.572 C 81.624 257.749,82.175 257.617,82.175 257.281 C 82.175 256.944,82.583 256.825,83.082 257.016 C 83.580 257.207,83.988 257.084,83.988 256.743 C 83.988 256.401,84.241 256.278,84.550 256.470 C 84.860 256.661,85.286 256.537,85.498 256.193 C 85.711 255.850,86.118 255.714,86.405 255.891 C 86.691 256.068,87.099 255.932,87.311 255.589 C 87.523 255.246,87.976 255.138,88.317 255.348 C 88.658 255.559,89.608 255.373,90.427 254.934 C 91.619 254.296,92.157 254.286,93.113 254.883 C 93.771 255.294,94.570 255.469,94.889 255.272 C 95.207 255.075,95.468 255.247,95.468 255.654 C 95.468 256.061,95.645 256.218,95.862 256.001 C 96.078 255.785,96.642 256.080,97.115 256.656 C 97.650 257.308,97.808 257.361,97.534 256.798 C 97.292 256.299,97.942 256.681,98.979 257.645 C 100.015 258.610,100.720 259.632,100.544 259.915 C 100.369 260.199,100.649 260.594,101.167 260.793 C 101.684 260.991,101.957 261.397,101.774 261.695 C 101.590 261.992,101.743 262.236,102.115 262.236 C 102.486 262.236,102.634 262.489,102.443 262.798 C 102.252 263.107,102.376 263.534,102.719 263.746 C 103.062 263.958,103.198 264.366,103.021 264.653 C 102.844 264.939,102.976 265.344,103.313 265.553 C 104.131 266.058,104.104 271.723,103.282 272.231 C 102.927 272.450,102.783 273.010,102.961 273.475 C 103.139 273.940,103.006 274.320,102.664 274.320 C 102.323 274.320,102.212 274.592,102.417 274.924 C 102.622 275.257,102.457 275.529,102.050 275.529 C 101.642 275.529,101.479 275.698,101.686 275.906 C 101.894 276.113,101.463 276.814,100.730 277.462 C 99.996 278.111,99.804 278.441,100.302 278.196 C 100.801 277.951,100.557 278.466,99.761 279.340 C 98.965 280.214,98.079 280.785,97.793 280.608 C 97.507 280.431,97.110 280.709,96.911 281.227 C 96.713 281.745,96.307 282.018,96.009 281.834 C 95.712 281.650,95.468 281.804,95.468 282.175 C 95.468 282.547,95.196 282.683,94.864 282.477 C 94.532 282.272,94.260 282.325,94.260 282.596 C 94.260 282.866,92.628 283.086,90.635 283.084 C 88.641 283.083,87.009 282.862,87.009 282.593 C 87.009 282.324,86.756 282.260,86.447 282.452 C 86.137 282.643,85.711 282.518,85.498 282.175 C 85.286 281.832,84.860 281.708,84.550 281.899 C 84.241 282.090,83.988 281.943,83.988 281.571 C 83.988 281.199,83.745 281.046,83.447 281.230 C 83.149 281.414,82.744 281.141,82.545 280.623 C 82.346 280.105,81.910 279.851,81.575 280.058 C 81.241 280.265,80.967 280.146,80.967 279.794 C 80.967 279.442,80.763 279.154,80.514 279.154 C 80.044 279.154,79.751 281.057,79.701 284.441 C 79.685 285.521,79.439 286.405,79.154 286.405 C 78.869 286.405,78.623 287.289,78.607 288.369 C 78.564 291.259,78.206 293.816,77.674 295.024 C 77.416 295.611,77.346 296.630,77.519 297.289 C 77.691 297.949,77.564 298.654,77.236 298.857 C 76.908 299.060,76.809 299.902,77.016 300.728 C 77.224 301.554,77.079 302.609,76.696 303.071 C 76.312 303.533,76.165 304.578,76.370 305.393 C 76.576 306.214,76.449 307.055,76.086 307.280 C 75.720 307.506,75.597 308.347,75.808 309.187 C 76.015 310.014,75.941 311.003,75.642 311.387 C 74.806 312.461,69.486 344.162,69.486 348.069 C 69.486 348.400,68.673 348.251,67.678 347.736 C 62.824 345.226,62.522 345.596,66.465 349.223 C 68.625 351.209,70.707 352.725,71.091 352.591 C 71.475 352.457,72.291 352.941,72.904 353.666 L 74.018 354.985 72.508 353.781 L 70.997 352.577 72.479 354.252 C 73.293 355.173,74.293 355.799,74.700 355.643 C 75.107 355.487,75.800 355.819,76.240 356.380 C 76.974 357.318,76.940 357.328,75.831 356.506 C 74.634 355.618,74.633 355.623,75.777 356.963 C 76.412 357.707,77.358 358.247,77.878 358.161 C 78.399 358.076,78.832 358.414,78.840 358.912 C 78.848 359.411,79.398 359.819,80.062 359.820 C 80.730 359.820,81.270 360.224,81.270 360.726 C 81.271 361.224,81.728 361.635,82.285 361.639 C 82.842 361.643,83.522 361.891,83.794 362.189 C 84.085 362.507,83.915 362.519,83.384 362.217 C 82.602 361.773,82.592 361.843,83.307 362.724 C 84.264 363.904,85.481 364.117,84.833 362.991 C 84.581 362.552,84.629 362.447,84.948 362.739 C 85.251 363.016,85.505 363.560,85.513 363.948 C 85.521 364.335,85.986 364.617,86.547 364.573 C 87.107 364.529,87.509 364.801,87.439 365.177 C 87.368 365.553,87.776 365.825,88.345 365.781 C 88.913 365.737,89.321 366.009,89.251 366.385 C 89.181 366.762,89.589 367.033,90.158 366.990 C 90.726 366.946,91.134 367.217,91.064 367.594 C 90.994 367.970,91.409 368.241,91.987 368.195 C 92.565 368.150,92.898 368.340,92.726 368.618 C 92.329 369.260,94.703 370.564,95.439 370.109 C 95.742 369.922,96.186 370.087,96.426 370.476 C 96.716 370.945,96.578 371.035,96.015 370.743 C 95.548 370.501,95.702 370.737,96.357 371.268 C 97.012 371.798,97.910 372.093,98.352 371.924 C 98.795 371.754,98.997 371.872,98.803 372.187 C 98.338 372.940,101.953 374.794,102.830 374.252 C 103.236 374.001,103.342 374.102,103.095 374.503 C 102.218 375.921,106.065 377.141,107.257 375.824 C 114.245 368.103,128.399 373.221,128.399 383.469 L 128.399 387.179 136.858 389.967 C 148.969 393.958,158.281 396.188,158.868 395.238 C 159.122 394.827,160.080 389.136,160.997 382.593 C 161.915 376.049,162.799 369.981,162.964 369.109 L 163.263 367.524 167.174 369.563 C 173.933 373.086,180.018 371.914,183.845 366.352 C 192.557 353.692,179.540 338.772,166.730 346.736 C 162.875 349.132,163.704 351.230,160.681 331.420 C 159.262 322.115,157.932 314.301,157.728 314.055 C 157.523 313.810,150.432 314.826,141.971 316.314 C 133.509 317.802,126.397 319.022,126.166 319.026 C 125.935 319.030,126.475 320.597,127.365 322.508 C 131.709 331.833,126.619 343.807,118.311 343.807 L 116.616 343.807 116.616 269.184 C 116.616 224.270,116.395 194.562,116.062 194.562 C 115.756 194.562,115.077 194.397,114.551 194.195 C 114.003 193.985,113.595 194.141,113.595 194.562 M279.532 194.845 C 271.492 197.711,268.621 206.679,273.016 215.200 C 274.071 217.247,274.865 218.984,274.779 219.059 C 274.693 219.135,271.088 219.795,266.767 220.526 C 251.933 223.038,242.733 224.739,242.450 225.023 C 242.184 225.289,246.231 254.867,246.946 257.883 C 247.237 259.111,247.388 259.171,248.260 258.407 C 253.893 253.465,260.464 253.718,266.084 259.093 C 278.912 271.363,261.457 291.329,248.307 279.428 C 247.415 278.620,247.261 278.911,246.621 282.623 C 243.882 298.515,241.800 312.726,242.165 313.037 C 242.403 313.239,249.532 314.582,258.006 316.020 C 275.710 319.024,274.813 318.651,273.183 322.336 C 268.037 333.971,272.847 343.746,283.742 343.793 C 293.727 343.836,298.130 335.145,294.054 323.440 C 292.681 319.500,292.633 319.060,293.550 318.807 C 297.049 317.844,323.243 314.063,324.111 314.396 C 324.925 314.708,325.082 315.211,324.786 316.558 C 324.564 317.568,324.673 318.482,325.042 318.711 C 325.395 318.929,325.517 319.774,325.312 320.589 C 325.107 321.409,325.264 322.460,325.666 322.944 C 326.098 323.465,326.233 324.537,326.000 325.597 C 325.779 326.602,325.879 327.544,326.229 327.760 C 326.570 327.971,326.694 328.916,326.505 329.860 C 326.308 330.848,326.452 331.755,326.846 331.998 C 327.264 332.257,327.384 333.196,327.155 334.419 C 326.931 335.613,327.046 336.582,327.440 336.826 C 327.808 337.053,327.936 337.890,327.729 338.716 C 327.525 339.530,327.671 340.575,328.055 341.038 C 328.452 341.516,328.582 342.558,328.357 343.455 C 328.128 344.368,328.265 345.396,328.683 345.900 C 329.080 346.379,329.249 347.395,329.059 348.158 C 328.868 348.922,328.869 349.205,329.060 348.788 C 329.252 348.370,329.659 348.184,329.965 348.373 C 330.272 348.562,330.685 348.294,330.883 347.776 C 331.082 347.258,331.488 346.985,331.785 347.169 C 332.083 347.353,332.326 347.199,332.326 346.828 C 332.326 346.456,332.598 346.320,332.931 346.526 C 333.263 346.731,333.535 346.595,333.535 346.224 C 333.535 345.852,333.807 345.716,334.139 345.921 C 334.471 346.127,334.743 346.066,334.743 345.787 C 334.743 345.507,335.491 345.229,336.405 345.169 C 339.341 344.974,354.498 328.129,363.595 314.949 L 366.767 310.353 366.767 296.919 C 366.767 286.737,366.950 283.411,367.523 283.180 C 368.936 282.609,364.662 282.784,362.498 283.385 C 354.234 285.680,350.605 295.209,354.698 303.862 C 356.963 308.650,358.601 307.848,340.679 310.733 C 332.263 312.088,325.188 313.483,324.957 313.832 C 324.262 314.882,321.047 297.115,319.310 282.628 C 319.081 280.718,318.857 279.158,318.813 279.162 C 318.768 279.166,317.129 279.982,315.172 280.974 C 303.484 286.901,291.967 277.225,295.512 264.459 C 297.834 256.095,310.432 252.107,316.677 257.759 C 318.280 259.209,318.028 260.113,321.291 241.215 C 324.196 224.390,324.221 224.130,322.996 223.866 C 322.312 223.719,315.906 222.774,308.761 221.766 C 301.616 220.758,294.905 219.790,293.848 219.614 L 291.925 219.296 293.793 215.303 C 299.561 202.977,291.034 190.745,279.532 194.845 M372.810 285.385 C 372.810 285.489,373.693 286.373,374.773 287.349 L 376.737 289.124 374.962 287.160 C 373.308 285.330,372.810 284.919,372.810 285.385 M280.691 372.767 C 280.464 373.134,280.026 373.277,279.717 373.086 C 279.407 372.895,279.154 373.042,279.154 373.414 C 279.154 373.785,278.882 373.921,278.550 373.716 C 278.218 373.511,277.946 373.631,277.946 373.982 C 277.946 374.334,277.742 374.569,277.492 374.504 C 277.243 374.439,276.000 375.391,274.730 376.619 C 273.461 377.847,272.619 378.852,272.860 378.852 C 273.102 378.852,272.848 379.350,272.298 379.958 C 271.747 380.567,271.478 381.247,271.701 381.469 C 271.923 381.691,271.855 381.873,271.551 381.873 C 271.246 381.873,270.997 382.961,270.997 384.290 C 270.997 387.188,270.954 387.185,277.039 384.730 L 281.873 382.779 282.051 378.003 C 282.219 373.495,281.634 371.241,280.691 372.767 " stroke="none" fill="#9aa3b7" fill-rule="evenodd"></path><path id="path8" d="M56.798 227.324 C 48.656 228.658,41.925 229.808,41.842 229.881 C 41.758 229.953,42.516 231.667,43.526 233.689 C 48.475 243.593,43.103 254.905,33.419 254.972 L 31.490 254.985 31.788 266.918 C 32.146 281.244,32.332 282.777,33.713 282.785 C 43.082 282.839,47.968 293.989,43.194 304.418 C 42.358 306.243,41.746 307.795,41.834 307.866 C 42.146 308.119,74.481 313.636,74.651 313.466 C 74.746 313.371,75.810 306.359,77.015 297.885 C 78.220 289.411,79.354 281.626,79.536 280.586 L 79.866 278.695 83.783 280.737 C 98.481 288.398,110.392 269.711,98.247 258.045 C 95.373 255.284,90.897 254.835,85.498 256.766 C 83.505 257.479,81.455 258.202,80.945 258.373 C 80.167 258.633,79.594 256.151,77.418 243.088 C 74.160 223.536,74.464 224.760,72.895 224.836 C 72.184 224.871,64.940 225.991,56.798 227.324 M198.943 283.196 C 199.524 283.348,200.476 283.348,201.057 283.196 C 201.639 283.044,201.163 282.920,200.000 282.920 C 198.837 282.920,198.361 283.044,198.943 283.196 M307.625 316.656 C 290.957 319.409,292.615 318.423,294.518 324.446 C 298.202 336.107,292.262 345.811,282.387 344.264 C 281.440 344.115,281.005 344.108,281.420 344.247 C 281.995 344.439,282.175 347.804,282.175 358.333 C 282.175 369.920,282.312 372.115,283.018 371.844 C 284.580 371.245,288.566 372.777,291.111 374.955 L 293.638 377.118 296.065 375.671 C 297.401 374.875,298.288 373.997,298.038 373.722 C 297.788 373.446,297.925 373.417,298.343 373.657 C 299.186 374.143,313.159 365.715,312.711 364.991 C 312.562 364.749,312.773 364.552,313.180 364.552 C 314.526 364.552,319.026 361.203,318.624 360.500 C 318.410 360.125,318.451 360.014,318.715 360.252 C 319.404 360.874,324.508 357.054,324.053 356.256 C 323.844 355.889,323.890 355.785,324.155 356.024 C 324.873 356.673,328.182 354.111,327.705 353.277 C 327.481 352.887,327.516 352.764,327.781 353.003 C 328.428 353.588,331.832 351.120,331.382 350.392 C 331.187 350.077,331.258 349.894,331.539 349.985 C 332.109 350.170,337.925 345.579,337.570 345.224 C 337.222 344.875,332.822 346.829,330.932 348.171 C 328.645 349.796,328.920 350.759,326.556 332.861 C 324.031 313.745,324.120 314.183,322.798 314.261 C 322.223 314.295,315.395 315.373,307.625 316.656 M212.829 357.704 C 212.829 358.867,212.953 359.343,213.105 358.761 C 213.257 358.180,213.257 357.228,213.105 356.647 C 212.953 356.065,212.829 356.541,212.829 357.704 M116.623 377.190 L 116.630 382.175 120.572 383.859 C 122.740 384.785,124.819 385.355,125.190 385.125 C 125.602 384.871,125.698 384.981,125.435 385.405 C 125.198 385.789,125.224 386.106,125.493 386.111 C 125.762 386.116,126.594 386.283,127.341 386.484 C 128.588 386.818,128.701 386.644,128.701 384.400 C 128.701 379.699,125.856 375.538,121.148 373.353 C 116.829 371.349,116.615 371.531,116.623 377.190 " stroke="none" fill="#ced8df" fill-rule="evenodd"></path><path id="path9" d="M270.231 207.251 C 270.231 208.414,270.355 208.890,270.507 208.308 C 270.659 207.727,270.659 206.775,270.507 206.193 C 270.355 205.612,270.231 206.088,270.231 207.251 M1.589 227.295 C 5.070 248.539,10.816 269.258,15.390 277.063 C 16.207 278.458,16.749 279.727,16.593 279.883 C 16.437 280.039,17.395 282.389,18.723 285.106 L 21.137 290.046 23.367 287.577 C 25.675 285.023,29.359 282.779,31.245 282.780 C 32.247 282.780,32.312 282.080,32.126 273.263 C 31.777 256.699,31.493 254.914,29.086 254.105 C 21.129 251.432,18.943 244.708,22.574 234.071 L 24.041 229.773 13.984 228.129 C 8.453 227.225,3.349 226.351,2.643 226.187 C 1.574 225.939,1.397 226.124,1.589 227.295 M45.482 241.692 C 45.482 243.187,45.600 243.799,45.744 243.051 C 45.888 242.304,45.888 241.080,45.744 240.332 C 45.600 239.585,45.482 240.196,45.482 241.692 M40.747 251.511 L 38.973 253.474 40.937 251.700 C 42.017 250.724,42.900 249.840,42.900 249.736 C 42.900 249.269,42.402 249.680,40.747 251.511 M241.692 314.012 C 241.692 314.980,236.742 347.747,236.570 347.920 C 236.468 348.023,234.792 347.446,232.845 346.638 C 225.748 343.693,221.571 344.028,217.751 347.849 C 206.294 359.305,218.180 376.882,232.378 369.481 C 234.615 368.315,236.523 367.440,236.619 367.535 C 236.714 367.630,237.670 374.022,238.743 381.739 C 240.193 392.166,240.904 395.770,241.511 395.770 C 243.023 395.770,252.201 393.310,261.178 390.497 L 270.091 387.705 270.094 385.847 C 270.105 379.859,276.361 372.205,281.245 372.205 C 282.055 372.205,282.175 370.423,282.175 358.356 L 282.175 344.507 280.398 344.116 C 272.095 342.293,268.346 333.116,272.108 323.820 C 274.123 318.839,274.224 319.243,270.846 318.758 C 267.576 318.289,245.115 314.346,243.051 313.880 C 242.304 313.710,241.692 313.770,241.692 314.012 M113.738 372.797 C 111.639 373.295,106.949 376.140,106.949 376.915 C 106.949 377.321,115.558 381.873,116.324 381.873 C 116.485 381.873,116.616 379.698,116.616 377.039 C 116.616 374.381,116.412 372.233,116.163 372.267 C 115.914 372.301,114.822 372.540,113.738 372.797 " stroke="none" fill="#e1e6ea" fill-rule="evenodd"></path></g></svg>